<svg id="Layer_3" enable-background="new 0 0 64 64" height="512" viewBox="0 0 64 64" width="512" xmlns="http://www.w3.org/2000/svg"><path d="m43.707 42.293-2.293-2.293h2.586v-2h-4.586l-5-5h8.172l3.707 3.707 1.414-1.414-2.293-2.293h3.586v-2h-3.586l2.293-2.293-1.414-1.414-3.707 3.707h-8.172l5-5h4.586v-2h-2.586l2.293-2.293-1.414-1.414-2.293 2.293v-2.586h-2v4.586l-5 5v-8.172l3.707-3.707-1.414-1.414-2.293 2.293v-3.586h-2v3.586l-2.293-2.293-1.414 1.414 3.707 3.707v8.172l-5-5v-4.586h-2v2.586l-2.293-2.293-1.414 1.414 2.293 2.293h-2.586v2h4.586l5 5h-8.172l-3.707-3.707-1.414 1.414 2.293 2.293h-3.586v2h3.586l-2.293 2.293 1.414 1.414 3.707-3.707h8.172l-5 5h-4.586v2h2.586l-2.293 2.293 1.414 1.414 2.293-2.293v2.586h2v-4.586l5-5v8.172l-3.707 3.707 1.414 1.414 2.293-2.293v3.586h2v-3.586l2.293 2.293 1.414-1.414-3.707-3.707v-8.172l5 5v4.586h2v-2.586l2.293 2.293z"/><path d="m19.707 49.707-1.414-1.414-3.707 3.707h-2.586v-2.586l3.707-3.707-1.414-1.414-2.293 2.293v-3.586h-2v3.586l-2.293-2.293-1.414 1.414 3.707 3.707v2.586h-2.586l-3.707-3.707-1.414 1.414 2.293 2.293h-3.586v2h3.586l-2.293 2.293 1.414 1.414 3.707-3.707h2.586v2.586l-3.707 3.707 1.414 1.414 2.293-2.293v3.586h2v-3.586l2.293 2.293 1.414-1.414-3.707-3.707v-2.586h2.586l3.707 3.707 1.414-1.414-2.293-2.293h3.586v-2h-3.586z"/><path d="m2.293 14.293 1.414 1.414 3.707-3.707h2.586v2.586l-3.707 3.707 1.414 1.414 2.293-2.293v3.586h2v-3.586l2.293 2.293 1.414-1.414-3.707-3.707v-2.586h2.586l3.707 3.707 1.414-1.414-2.293-2.293h3.586v-2h-3.586l2.293-2.293-1.414-1.414-3.707 3.707h-2.586v-2.586l3.707-3.707-1.414-1.414-2.293 2.293v-3.586h-2v3.586l-2.293-2.293-1.414 1.414 3.707 3.707v2.586h-2.586l-3.707-3.707-1.414 1.414 2.293 2.293h-3.586v2h3.586z"/><path d="m61.707 49.707-1.414-1.414-3.707 3.707h-2.586v-2.586l3.707-3.707-1.414-1.414-2.293 2.293v-3.586h-2v3.586l-2.293-2.293-1.414 1.414 3.707 3.707v2.586h-2.586l-3.707-3.707-1.414 1.414 2.293 2.293h-3.586v2h3.586l-2.293 2.293 1.414 1.414 3.707-3.707h2.586v2.586l-3.707 3.707 1.414 1.414 2.293-2.293v3.586h2v-3.586l2.293 2.293 1.414-1.414-3.707-3.707v-2.586h2.586l3.707 3.707 1.414-1.414-2.293-2.293h3.586v-2h-3.586z"/><path d="m59.414 10 2.293-2.293-1.414-1.414-3.707 3.707h-2.586v-2.586l3.707-3.707-1.414-1.414-2.293 2.293v-3.586h-2v3.586l-2.293-2.293-1.414 1.414 3.707 3.707v2.586h-2.586l-3.707-3.707-1.414 1.414 2.293 2.293h-3.586v2h3.586l-2.293 2.293 1.414 1.414 3.707-3.707h2.586v2.586l-3.707 3.707 1.414 1.414 2.293-2.293v3.586h2v-3.586l2.293 2.293 1.414-1.414-3.707-3.707v-2.586h2.586l3.707 3.707 1.414-1.414-2.293-2.293h3.586v-2z"/></svg>