<svg height="512" viewBox="0 0 44 60" width="512" xmlns="http://www.w3.org/2000/svg"><g id="028---UV-Protection"><path id="Shape" d="m25.628 6.262c-.430391-.33464461-1.0495198-.26288171-1.391951.16134033-.3424311.42422204-.2819612 1.04455567.135951 1.39465967.258.208.53.421.817.635.2858125.21435935.6642734.25995643.9928203.11961524.3285469-.14034118.5572656-.44529946.6-.8s-.1070078-.70525589-.3928203-.91961524c-.2686667-.20066667-.5223333-.39766667-.761-.591z"/><path id="Shape" d="m37.268 11.06c-.6511603-.0314922-1.299929-.1009435-1.943-.208-.5388245-.0775654-1.0407075.2901234-1.1291873.8272636s.2689525 1.0463787.8041873 1.1457364c.7205242.1198919 1.4474232.1976904 2.177.233.5522847.0276142 1.0223857-.3977153 1.05-.95.0276142-.5522847-.3977153-1.0223858-.95-1.05z"/><path id="Shape" d="m39.958 39.93c-.2279413-.1357084-.5004651-.1752846-.7575921-.1100182-.2571271.0652664-.4777844.2300263-.6134079.4580182-.335.563-.7 1.125-1.087 1.671-.2258286.2909129-.2734825.6824064-.1240359 1.018999.1494466.3365927.4718035.563802.8390468.5913919.3672434.0275899.7199294-.1489054.9179891-.4593909.416-.588.811-1.2 1.173-1.8.2819225-.4744553.1261737-1.0876042-.348-1.37z"/><path id="Shape" d="m30.807 11.643c.5130725.2048976 1.0951023-.0449275 1.3-.558.2048976-.5130725-.0449275-1.09510234-.558-1.3-.6-.239-1.2-.515-1.8-.821-.4909811-.25294639-1.0940536-.05998111-1.347.43100002s-.0599811 1.09405358.431 1.34699998c.654.336 1.317.638 1.974.901z"/><path id="Shape" d="m34.962 45.043c-.4593333.4886667-.934.9636667-1.424 1.425-.2595535.2456201-.368354.6110525-.2854175.9586425.0829366.3475899.3450101.6245301.6875.7265.34249.1019698.713364.0134776.9729175-.2321425.5173333-.488 1.0193333-.9903333 1.506-1.507.3785912-.4023394.3593394-1.0354088-.043-1.414s-1.0354088-.3593394-1.414.043z"/><path id="Shape" d="m29.393 52.1c.37 0 .507-.072 2.28-1.432.2954937-.2131304.4516894-.5701041.4077032-.9317756-.0439861-.3616716-.2811925-.6708001-.6191581-.8068897-.3379655-.1360896-.7232011-.0776019-1.0055451.1526653-.537.412-1.085.811-1.638 1.2-.356676.2508148-.5097193.7038222-.3782296 1.1195581.1314896.4157358.5171954.6983468.9532296.6984419z"/><path id="Shape" d="m40.9 38c.2479752.0941865.523212.0859902.7651432-.022785.2419312-.1087753.4307323-.3092163.5248568-.557215.257-.674.487-1.383.676-2.046.1057972-.3455832.0168911-.7213612-.232546-.9828988-.2494371-.2615375-.6205855-.3681317-.9707893-.2788115-.3502037.0893202-.6249608.3606539-.7186647.7097103-.226.784-.414 1.338-.623 1.887-.0945501.2479686-.0866561.5233512.0219434.7654963.1085996.2421452.3089973.4311919.5570566.5255037z"/><path id="Shape" d="m43.009 27.982c-.2655919-.0197287-.5278695.0688211-.7271507.2454995-.1992813.1766785-.318616.426458-.3308493.6925005-.04.668-.1 1.337-.193 1.988-.0480522.3540502.0964292.7068416.3790196.9254812.2825903.2186395.6603574.2699106.991.1345.3306426-.1354107.5639282-.436931.6119804-.7909812.095-.7.165-1.421.207-2.137.0330252-.5511415-.3868716-1.0247565-.938-1.058z"/><path id="Shape" d="m44 22.763c0-.5522847-.4477153-1-1-1s-1 .4477153-1 1v2.072c0 .5522847.4477153 1 1 1s1-.4477153 1-1z"/><path id="Shape" d="m44 16.544c0-.5522847-.4477153-1-1-1s-1 .4477153-1 1v2.073c0 .5522847.4477153 1 1 1s1-.4477153 1-1z"/><path id="Shape" d="m41.729 10.665c-.1913333.0433333-.3813333.083-.57.119-.3560853.0610399-.6515597.3094002-.7729282.6496828-.1213684.3402827-.0497572.7195712.187327.9921766.2370842.2726053.602773.3961353.9566012.3231406.171-.033.342-.067.495-.1.1311289.5085469.6333072.8290085 1.1497706.7337181.5164635-.0952904.8712159-.5738605.8122294-1.0957181-.0613698-.5254945-.3412072-1.0008478-.7709014-1.3095121s-.9695114-.4220975-1.4870986-.3124879z"/><path id="Shape" d="m25.362 52.463-.862.5c-.3119508.1773616-.5049532.5082732-.5057421.8671183s.1907567.6906021.5019247.8693336c.3111679.1787314.694247.1770325 1.0038174-.0044519l.87-.506c.4654329-.2834944.6181694-.8874665.3434541-1.3581345s-.8757166-.6347051-1.3514541-.3688655z"/><path id="Shape" d="m18.373 6.261c-3.557 2.865-9.234 5.956-16.1 4.4-.55548562-.1214388-1.13606053.0160344-1.57810548.3736766s-.6976922.8967253-.69489452 1.4653234v14.79c0 11.21 5.752 19.153 15.127 25.374.645.427 1.78 1.111 3.372 2.032.47786.2716903 1.0854205.1067416 1.3602745-.3693057.2748541-.4760473.1139391-1.0846885-.3602745-1.3626943-1.558-.9-2.657-1.562-3.269-1.967-8.679-5.761-14.251-13.118-14.251-23.707v-14.645c7.587 1.658 13.77-1.7 17.648-4.826.4266751-.34728952.4926922-.97400422.1477449-1.40257513-.3449474-.42857091-.9712911-.49801963-1.4017449-.15542487z"/><path id="Shape" d="m22 50c-.5522847 0-1 .4477153-1 1v8c0 .5522847.4477153 1 1 1s1-.4477153 1-1v-8c0-.5522847-.4477153-1-1-1z"/><path id="Shape" d="m8 17.343c-.55228475 0-1 .4477153-1 1v6c0 3.3137085 2.6862915 6 6 6s6-2.6862915 6-6v-6c0-.5522847-.4477153-1-1-1s-1 .4477153-1 1v6c0 2.209139-1.790861 4-4 4s-4-1.790861-4-4v-6c0-.5522847-.44771525-1-1-1z"/><path id="Shape" d="m25.586 17.433c-.2420139.1091141-.4307083.3099828-.5244979.5583376-.0937896.2483549-.0849762.5238111.0244979.7656624l5 11c.1624531.356559.5181769.5853918.91.5853918s.7475469-.2288328.91-.5853918l5-11c.1607703-.3271197.1308229-.7158043-.0781603-1.0144353-.2089831-.2986309-.5638974-.4599023-.9262972-.4209054-.3623998.038997-.674878.272085-.8155425.6083407l-4.09 9-4.09-9c-.2283428-.5005989-.8181989-.7226887-1.32-.497z"/><path id="Shape" d="m17 39.343c0 2.7614237 2.2385763 5 5 5s5-2.2385763 5-5-2.2385763-5-5-5c-2.7600532.0033061-4.9966939 2.2399468-5 5zm5-3c1.6568542 0 3 1.3431458 3 3s-1.3431458 3-3 3-3-1.3431458-3-3 1.3431458-3 3-3z"/><path id="Shape" d="m14 40.343h1c.5522847 0 1-.4477153 1-1s-.4477153-1-1-1h-1c-.5522847 0-1 .4477153-1 1s.4477153 1 1 1z"/><path id="Shape" d="m28 39.343c0 .5522847.4477153 1 1 1h1c.5522847 0 1-.4477153 1-1s-.4477153-1-1-1h-1c-.5522847 0-1 .4477153-1 1z"/><path id="Shape" d="m21 32.343c0 .5522847.4477153 1 1 1s1-.4477153 1-1v-1c0-.5522847-.4477153-1-1-1s-1 .4477153-1 1z"/><path id="Shape" d="m23 46.343c0-.5522847-.4477153-1-1-1s-1 .4477153-1 1v1c0 .5522847.4477153 1 1 1s1-.4477153 1-1z"/><path id="Shape" d="m15.636 32.979c-.187777.1875683-.2932867.4420908-.2932867.7075s.1055097.5199317.2932867.7075l.707.707c.3923789.3789722 1.0160848.3735524 1.4018186-.0121814s.3911536-1.0094397.0121814-1.4018186l-.707-.708c-.3904999-.3903819-1.0235001-.3903819-1.414 0z"/><path id="Shape" d="m27.657 46c.4043959-.0000863.7689341-.2437275.923678-.6173454.1547439-.373618.0692299-.8036603-.216678-1.0896546l-.707-.707c-.3923789-.3789722-1.0160848-.3735524-1.4018186.0121814s-.3911536 1.0094397-.0121814 1.4018186c.646.645.881 1 1.414 1z"/><path id="Shape" d="m26.95 32.979-.707.708c-.3693233.3938446-.3593222 1.0097448.0225937 1.3913906s.9978231.3912112 1.3914063.0216094l.707-.707c.3907414-.3904653.3909653-1.0237585.0005-1.4145-.3904653-.3907414-1.0237585-.3909653-1.4145-.0005z"/><path id="Shape" d="m16.343 46c.494 0 .638-.224 1.414-1 .3789722-.3923789.3735524-1.0160848-.0121814-1.4018186s-1.0094397-.3911536-1.4018186-.0121814l-.707.707c-.2859079.2859943-.3714219.7160366-.216678 1.0896546.1547439.3736179.5192821.6172591.923678.6173454z"/><path id="Shape" d="m22 29c.5522847 0 1-.4477153 1-1v-27c0-.55228475-.4477153-1-1-1s-1 .44771525-1 1v27c0 .5522847.4477153 1 1 1z"/></g></svg>